<svg width="523" height="639" viewBox="0 0 523 639" fill="none" xmlns="http://www.w3.org/2000/svg">
<path fill-rule="evenodd" clip-rule="evenodd" d="M177.214 3.36328C179.529 4.78872 181.255 5.89936 181.64 8.78906C183.205 20.4856 182.47 35.5142 182.56 47.4307C177.225 50.0442 172.254 52.3658 167.239 55.5918C166.624 51.4408 166.054 44.2986 162.629 41.6836C156.013 40.0295 117.225 58.2606 109.444 62.5342C81.9494 77.6297 83.3391 106.989 85.2091 135.075C91.419 132.707 116.444 122.359 121.539 119.103L121.594 118.338C122.134 110.409 120.209 91.4678 122.464 85.9873C127.139 81.9368 168.15 65.909 176.525 63.7725C176.75 74.1595 177.084 85.157 176.719 95.502C171.838 97.4012 150.401 104.946 149.824 107.804C148.224 115.741 148.019 159.482 150.134 164.953C156.004 170.446 168.184 156.278 174.539 162.406C180.944 168.584 178.964 183.435 180.254 192.125C188.179 189.216 198.094 185.163 205.839 182.642C205.934 170.57 205.524 158.59 205.359 146.531C210.769 144.055 216.229 141.703 221.744 139.476C221.884 133.876 221.939 128.274 221.904 122.672C229.239 118.814 247.689 110.637 255.964 107.566C256.544 118.161 256.454 129.389 256.489 140.05C251.844 142.189 247.364 144.153 242.959 146.775C242.934 155.776 242.614 164.856 242.609 173.765C241.845 173.633 239.14 173.202 238.565 173.375C228.455 176.436 215.204 182.602 205.949 187.187C205.834 194.564 206.24 205.452 206.81 212.979C213.175 211.046 219.029 208.092 225.164 206.39L225.279 237.041C219.799 239.233 193.734 249.558 189.344 250.287C189.269 241.578 189.294 232.678 188.864 223.996C182.269 225.893 167.135 231.356 161.404 229.263C159.584 227.408 159.985 225.466 160.025 222.696C160.105 217.388 160.41 214.252 159.435 208.97C150.045 212.53 142.189 214.743 137.344 223.663C133.034 231.593 128.654 272.072 145.159 266.432C160.094 261.33 179.434 255.497 194.244 249.825C195.039 258.382 195.389 271.133 195.404 279.894C188.674 282.173 159.159 290.611 156.554 296.225C153.824 302.11 156.405 345.391 156.48 355.186C161.755 363.79 168.095 362.5 176.605 360.05C177.22 354.39 176.799 344.305 176.759 338.22C191.319 333.153 206.439 329.061 221.084 324.227C226.534 322.428 236.9 319.327 241.81 317.035C242.11 292.278 240.059 299.464 220.929 304.019C220.504 295.036 220.349 286.042 220.469 277.051L237.529 270.618L237.39 248.108C244.34 245.594 251.34 243.234 258.395 241.031L263.645 243.208C264.265 261.697 262.874 280.662 263.629 299.165C263.744 302.059 266.224 302.951 268.529 304.029L268.499 322.67C268.469 332.607 268.564 342.81 268.379 352.725C256.144 356.8 244.189 360.355 231.909 364.595C235.414 365.735 239.429 367.15 242.984 367.925C255.409 364.185 267.749 360.175 279.999 355.905L280.039 408.815C265.434 412.005 241.894 416.105 228.459 420.03C228.319 428.515 228.045 437.345 228.275 445.8C222.485 446.745 216.545 447.81 210.725 448.515C201.695 449.605 191.254 450.045 182.614 453.24C181.759 459.13 181.954 465.385 181.749 471.345C181.104 490.445 181.774 509.565 182.049 528.66C182.179 537.415 186.609 534.67 192.634 533.755C202.834 532.205 213.904 529.06 224.154 528.22C224.114 533.67 225.139 555.165 221.834 558.565C218.293 562.196 187.214 569.355 180.619 571.035C180.589 576.606 182.099 608.655 179.784 611.815C176.832 615.851 107.94 633.385 97.5294 635.505C90.7344 636.885 83.8038 638.151 76.8438 638.061C74.3438 638.031 70.0837 638.12 68.3438 636.18C63.7543 631.054 65.7442 605.874 66.4141 598.85C67.1993 590.649 72.0639 568.276 71.3341 562.445C70.8891 558.89 68.7545 555.465 66.5245 552.755C58.7945 543.38 48.3346 539.14 49.7296 524.465C50.1196 520.33 52.4092 514.76 55.7042 512.005C57.8341 510.23 60.7541 509.375 63.464 509.07C68.3538 508.52 73.714 509.45 78.589 509.92C86.6188 510.695 94.7641 511.535 102.839 511.375C101.264 508.505 99.8493 505.16 96.4347 504.76C80.8297 502.92 69.729 492.01 55.214 486.98C48.3495 484.601 44.2847 492.199 41.5147 490.311C41.6347 484.766 44.2847 479.525 45.7247 474.245C47.9797 465.975 47.6496 453.85 41.4747 447.345C31.7297 437.075 13.5939 444.075 3.54891 428.33C1.19395 424.645 -0.0810063 420.435 0.00399301 416.055C0.0790493 412.23 1.10456 408.435 2.73446 404.985C7.97446 393.9 62.7345 316.75 54.8995 308.473C51.6095 304.998 46.4543 302.912 42.6993 299.896C30.7444 290.285 29.5247 273.035 28.7647 258.856C27.7447 239.83 30.0292 220.511 31.8292 201.581C34.8792 169.419 38.4591 137.277 45.8341 105.764C47.634 98.0674 49.2447 89.9588 52.2296 82.625C53.9296 78.448 56.3596 74.8575 59.3546 71.501C83.9096 43.9836 121.665 24.905 155.444 11.5625C162.589 8.74153 169.844 5.51978 177.214 3.36328ZM76.6837 418.766C76.019 421.241 77.0289 426.425 76.1641 428.585C68.8742 446.775 50.6742 429.296 39.2042 426.9C35.0892 426.04 26.8244 425.721 26.4044 430.931C27.1242 432.785 27.5143 432.915 29.0792 434.09C34.0192 435.755 41.5545 435.825 45.8194 437.49C58.6393 442.505 73.9137 451.435 80.2286 432.08C81.6286 427.795 79.2136 422.566 76.6837 418.766ZM205.028 384.325C193.429 387.615 179.284 390.275 168.424 393.825C167.464 401.61 167.024 414.675 170.818 421.53C172.333 422.935 174.104 424.28 176.459 424.08C208.759 421.325 206.493 415.505 205.028 384.325ZM90.2696 289.613C86.0446 289.079 79.3389 289.115 75.9239 291.857C71.8296 300.462 94.8287 308.146 82.294 332.337C90.729 329.297 98.719 326.648 107.004 323.17C117.114 318.97 127.175 313.558 136.69 308.153C123.22 300.416 105.645 291.071 90.2696 289.613ZM124.605 149.583C117.825 150.862 103.814 157.533 98.9991 162.508C91.2991 170.462 91.374 188.652 94.089 198.661C98.814 200.573 121.799 190.783 124.154 187.374C126.644 183.764 125.185 154.14 124.605 149.583Z" fill="#FEFEFE"/>
<path d="M337.38 364.375C330.597 364.255 302.43 372.425 294.733 374.89C294.781 386.51 295.946 439.855 293.254 447.095C289.955 451.05 254.429 456.36 247.489 457.715C247.269 468.115 247.434 479.135 247.439 489.58C252.014 489.06 256.374 488.265 260.899 487.475C261.134 498.555 261.269 509.64 261.299 520.72C272.184 523.135 275.484 521.885 286.413 520.23C286.433 528.94 286.774 537.97 286.957 546.71C289.853 546.48 292.657 545.995 295.526 545.55C304.024 543.54 313.352 541.765 321.954 539.95C321.837 531.15 322.283 522.15 322.428 513.3C318.582 512.675 313.6 511.11 309.74 511.5C304.208 512.055 298.08 513.42 292.558 514.36C292.433 505.27 292.272 494.86 292.79 485.86C305.405 482.35 318.52 479.89 330.852 476.335L330.957 418.89L322.98 416.505C323.2 410.44 323.363 404.375 323.47 398.305C327.952 396.205 344.038 391.99 349.614 390.415C349.628 384.25 349.723 378.045 349.387 371.895C346.128 368.665 341.478 366.52 337.38 364.375Z" fill="#FEFEFE"/>
<path d="M320.706 245.213C316.095 245.86 292.319 254.746 286.943 256.835C287.279 265.836 287.456 274.843 287.475 283.85L301.829 289.023C301.958 299.296 302.725 312.732 301.337 322.838C300.843 326.439 297.646 327.83 294.655 329.591C294.44 337.65 294.862 347.52 294.974 355.705C299.262 354.585 326.144 347.66 327.648 346.145C327.569 344.75 327.399 344.025 327.957 342.745C328.352 342.59 328.75 342.435 329.149 342.29C334.06 340.48 366.764 330.617 370.245 332.203C372.576 335.525 371.897 344.735 371.879 349.31L381.331 346.905C387.04 345.49 391.444 348.895 396.838 351.71C406.414 348.98 416.025 346.375 425.669 343.9C426.027 335.38 425.851 325.525 425.907 316.903C421.951 314.626 418.916 313.097 414.765 311.279L386.436 318.571L386.293 296.567C384.241 297.068 373.822 299.949 372.719 299.741C363.183 297.939 355.643 301.453 346.115 304.15C345.803 296.293 345.967 287.217 345.918 279.263C343.453 277.537 341.105 276.494 338.405 275.186C336.381 275.325 323.721 277.442 323.184 276.335C319.489 268.717 323.325 252.947 320.706 245.213Z" fill="#FEFEFE"/>
<path d="M335.022 158.278C330.329 159.843 323.065 163.126 318.261 165.068L284.398 178.661C284.393 183.795 284.853 195.016 284.07 199.608C281.512 214.613 281.843 227.679 281.953 242.83L287.139 240.941L291.43 242.96C292.26 243.409 294.09 244.469 294.975 244.196C310.968 239.256 326.42 232.753 342.475 227.968C342.617 222.307 341.886 203.698 343.343 199.113C344.512 198.605 344.724 198.521 345.77 197.809C346.417 189.803 345.952 173.996 345.98 165.189C342.953 162.935 338.339 160.3 335.022 158.278Z" fill="#FEFEFE"/>
<path d="M407.907 172.878C400.317 174.993 388.916 179.547 381.22 182.39C381.434 197.411 381.676 211.21 379.457 226.07C378.748 230.817 379.329 240.927 379.357 246.118C382.239 246.729 386.859 248.25 389.817 249.131C392.474 249.935 413.407 241.784 417.713 240.202C417.49 219.543 417.398 198.882 417.437 178.222C414.731 176.257 410.941 174.445 407.907 172.878Z" fill="#FEFEFE"/>
<path d="M432.355 417.93C427.084 417.66 411.831 422.01 405.855 423.51L406.191 452.025C409.398 453.435 411.91 454.335 415.236 455.47C418.858 456.48 436.499 451.44 441.334 450.27L441.19 421.145C438.085 419.81 435.56 418.98 432.355 417.93Z" fill="#FEFEFE"/>
<path d="M357.453 101.278C352.943 101.318 352.247 104.717 348.619 101.651C345.894 102.154 337.386 105.832 334.121 107.109L334.094 136.124C336.729 138.177 339.062 139.591 341.893 141.353L347.02 144.448C353.257 142.062 359.465 139.596 365.641 137.053C365.457 127.033 365.443 117.012 365.6 106.992C362.953 104.958 360.216 103.148 357.453 101.278Z" fill="#FEFEFE"/>
<path d="M486.239 288.74C478.684 290.669 469.224 293.14 461.925 295.777C462.177 305.736 462.336 315.698 462.401 325.66L469.47 328.593C474.201 327.917 488.327 323.519 493.849 321.986C493.918 313.965 493.824 305.943 493.567 297.926C491.034 294.523 489.049 291.895 486.239 288.74Z" fill="#FEFEFE"/>
<path d="M256.469 0C250.759 2.066 239.804 7.84151 233.959 10.727C233.919 15.8755 232.199 40.7715 236.674 42.4005C239.274 41.8235 242.299 40.055 244.744 38.8045C249.724 36.522 254.679 33.6955 259.904 31.3125C262.124 32.72 264.604 34.115 266.889 35.4565L267.084 8.1405C264.559 5.837 259.309 2.1175 256.469 0Z" fill="#FEFEFE"/>
<path d="M379.146 367.83C376.633 367.815 359.493 372.955 355.499 373.99C355.777 383 355.777 392.34 355.897 401.375C358.214 402.765 360.344 403.71 362.783 404.84C364.152 405.32 382.911 399.85 386.522 399.045L386.43 372.26L379.146 367.83Z" fill="#FEFEFE"/>
<path d="M390.501 256.026C382.449 258.206 374.067 260.947 365.898 263.247L366.413 291.879L373.159 289.848C378.943 287.981 384.617 286.09 390.5 284.545L397.433 287.745C397.52 278.829 397.454 269.912 397.234 260.999L390.501 256.026Z" fill="#FEFEFE"/>
<path d="M515.815 187.903C507.218 190.259 499.259 193.342 490.768 195.89C490.672 205.021 490.782 214.153 491.099 223.279L495.105 221.879C503.162 219.316 511.205 216.71 519.234 214.061C519.666 209.114 521.613 197.349 522.967 192.703C520.606 190.971 518.273 189.487 515.815 187.903Z" fill="#FEFEFE"/>
<path d="M433.188 135.374C426.112 138.249 419.09 141.243 411.915 143.863L411.969 169.976L421.406 166.17C426.069 164.178 430.71 162.126 435.487 160.428C438.134 162.267 439.92 163.302 442.742 164.864L442.815 141.869C439.956 139.682 436.257 137.382 433.188 135.374Z" fill="#FEFEFE"/>
<path d="M407.929 74.7495C400.502 77.438 393.126 80.267 385.806 83.235C385.762 86.7785 384.886 108.056 386.258 110.065L387.565 109.87C394.948 107.796 404.04 104.142 411.66 101.598C411.686 94.204 412.8 85.168 411.489 78.0305C411.193 76.4195 409.386 75.6045 407.929 74.7495Z" fill="#FEFEFE"/>
<path d="M293.011 68.7485C284.842 72.371 271.079 79.081 263.379 83.4225C263.254 91.1885 263.319 98.9565 263.569 106.719C270.099 104.526 286.836 95.5665 293.419 92.0915C293.355 84.3095 293.219 76.528 293.011 68.7485Z" fill="#FEFEFE"/>
<path d="M385.845 483.49L385.302 483.475C381.327 483.355 366.008 486.165 360.901 486.92C361.001 493.805 360.592 506.655 361.644 513.195C366.413 513.4 381.316 511.205 386.512 510.545C386.545 505.125 386.945 487.58 385.845 483.49Z" fill="#FEFEFE"/>
<path d="M354.92 30.1309C345.904 33.9264 336.809 37.5319 327.642 40.9454C327.955 48.4154 327.4 56.5099 327.612 64.2694C331.312 63.6409 349.919 55.4949 354.44 53.5174C354.506 45.7204 354.666 37.9244 354.92 30.1309Z" fill="#FEFEFE"/>
<path d="M463.65 235.316C461.08 235.254 445.431 240.579 441.429 241.763C441.401 245.581 440.894 262.511 442.083 264.752L443.561 264.583C451.791 262.338 458.694 259.514 466.976 261.207C466.966 254.048 467.756 246.262 466.83 239.211C466.538 236.981 465.518 236.553 463.65 235.316Z" fill="#FEFEFE"/>
<path d="M237.684 450.75L217.434 455.475L217.604 481.53L237.769 477.645C237.859 468.68 237.829 459.715 237.684 450.75Z" fill="#FEFEFE"/>
<path d="M370.551 219.776C364.152 221.38 356.533 224.233 350.315 226.496L350.843 250.771C356.285 249.477 365.403 246.126 370.856 244.18L370.551 219.776Z" fill="#FEFEFE"/>
<path d="M253.819 64.3643C249.109 65.9543 240.314 70.4333 234.799 72.6443C234.639 79.1158 234.134 90.8388 235.099 97.0833C241.679 94.1608 248.279 91.2903 254.744 88.1238C254.814 82.2173 255.359 69.3083 253.819 64.3643Z" fill="#FEFEFE"/>
<path d="M323.012 118.098C318.102 119.03 309.502 123.072 304.696 125.25C304.8 132.515 304.537 140.439 304.45 147.752C310.37 145.67 317.632 142.074 323.386 139.344C323.432 132.26 323.307 125.176 323.012 118.098Z" fill="#FEFEFE"/>
</svg>
